<?xml version="1.0" standalone="no"?>
<!DOCTYPE svg PUBLIC "-//W3C//DTD SVG 20010904//EN"
 "http://www.w3.org/TR/2001/REC-SVG-20010904/DTD/svg10.dtd">
<svg version="1.0" xmlns="http://www.w3.org/2000/svg"
 width="512.000000pt" height="512.000000pt" viewBox="0 0 512.000000 512.000000"
 preserveAspectRatio="xMidYMid meet">
<metadata>
Created by potrace 1.16, written by Peter Selinger 2001-2019
</metadata>
<g transform="translate(0.000000,512.000000) scale(0.100000,-0.100000)"
fill="#000000" stroke="none">
<path d="M2420 3994 c-36 -7 -107 -34 -157 -59 -271 -134 -433 -445 -395 -758
36 -295 216 -527 481 -621 79 -28 96 -31 216 -31 154 0 226 18 347 90 176 103
301 281 344 492 22 106 15 291 -16 388 -112 360 -466 575 -820 499z"/>
<path d="M945 3900 c-226 -46 -420 -235 -480 -470 -38 -149 -12 -356 62 -489
51 -92 179 -218 264 -259 239 -116 501 -71 690 118 135 135 195 297 186 495
-14 291 -197 527 -462 595 -80 21 -186 25 -260 10z"/>
<path d="M3945 3900 c-290 -63 -495 -326 -495 -636 0 -248 140 -481 351 -582
107 -51 184 -67 302 -59 133 8 214 39 324 122 154 115 244 305 245 513 0 184
-56 331 -173 455 -118 127 -247 187 -414 193 -55 2 -118 -1 -140 -6z"/>
<path d="M748 2540 c-335 -59 -607 -299 -714 -630 -26 -83 -27 -93 -31 -367
l-5 -283 591 0 591 0 0 103 c0 331 116 627 334 855 44 46 109 104 144 130 74
55 75 51 -55 114 -158 75 -201 82 -523 84 -157 1 -306 -1 -332 -6z"/>
<path d="M3720 2531 c-47 -10 -110 -29 -140 -41 -67 -26 -170 -81 -170 -89 0
-3 24 -22 52 -41 74 -50 206 -184 268 -271 147 -209 220 -441 220 -700 l0
-129 586 0 586 0 -5 283 c-4 274 -5 284 -31 367 -97 301 -322 520 -628 611
-66 20 -99 22 -363 25 -254 3 -301 1 -375 -15z"/>
<path d="M2200 2286 c-316 -70 -569 -287 -672 -576 -40 -112 -49 -173 -55
-387 l-6 -213 1097 0 1096 0 0 204 c0 181 -3 214 -24 297 -30 118 -70 208
-137 304 -129 187 -345 328 -567 371 -96 18 -649 18 -732 0z"/>
</g>
</svg>
