<?xml version="1.0" standalone="no"?>
<!DOCTYPE svg PUBLIC "-//W3C//DTD SVG 20010904//EN"
 "http://www.w3.org/TR/2001/REC-SVG-20010904/DTD/svg10.dtd">
<svg version="1.0" xmlns="http://www.w3.org/2000/svg"
 width="512.000000pt" height="512.000000pt" viewBox="0 0 512.000000 512.000000"
 preserveAspectRatio="xMidYMid meet">
<metadata>
Created by potrace 1.16, written by Peter Selinger 2001-2019
</metadata>
<g transform="translate(0.000000,512.000000) scale(0.100000,-0.100000)"
fill="#000000" stroke="none">
<path d="M3255 4695 c-342 -53 -648 -209 -895 -455 -274 -274 -435 -621 -470
-1011 -5 -63 -10 -126 -10 -140 l0 -27 -152 -5 c-121 -3 -174 -10 -251 -30
-313 -83 -589 -304 -737 -593 -34 -66 -64 -150 -108 -303 -5 -18 -20 -29 -57
-41 -252 -86 -453 -294 -541 -560 -27 -80 -28 -96 -29 -255 0 -196 13 -254 91
-406 86 -166 207 -285 379 -370 186 -92 24 -84 1790 -84 l1560 0 73 27 c108
39 177 84 262 168 85 85 130 155 167 262 35 96 44 289 19 388 -22 88 -85 212
-145 286 l-49 60 86 43 c308 153 560 408 716 726 121 245 166 443 166 728 0
95 -3 189 -6 210 l-7 37 -121 0 -122 0 -27 -56 c-123 -250 -341 -421 -606
-476 -112 -23 -274 -20 -376 8 -324 88 -569 351 -630 679 -20 105 -16 251 11
355 19 77 79 210 123 274 80 116 234 245 359 300 l42 19 0 122 0 122 -46 7
c-77 10 -373 5 -459 -9z m-165 -400 c-48 -70 -117 -221 -144 -317 -66 -230
-59 -480 18 -706 131 -381 461 -672 860 -758 101 -22 284 -29 389 -15 168 23
370 97 494 182 l46 32 -7 -29 c-24 -96 -122 -280 -208 -392 -151 -196 -386
-361 -627 -442 -115 -39 -127 -38 -140 3 -21 62 -132 219 -209 296 -181 178
-401 276 -649 288 -62 3 -113 9 -113 14 0 4 -28 50 -62 101 -111 167 -300 329
-470 403 l-66 29 -7 53 c-14 114 29 381 84 521 137 347 416 627 756 758 85 33
90 31 55 -21z m-1106 -1570 c172 -43 324 -140 449 -285 40 -47 124 -201 166
-304 11 -26 15 -28 49 -22 20 3 92 9 160 12 98 5 136 3 195 -11 244 -58 448
-248 516 -480 11 -38 25 -89 31 -112 l11 -43 72 0 c180 0 316 -80 385 -228 24
-50 27 -70 27 -157 0 -90 -3 -106 -29 -160 -60 -122 -168 -196 -311 -215 -54
-8 -541 -10 -1505 -8 -1349 3 -1428 4 -1480 22 -199 66 -338 206 -394 395 -18
62 -21 203 -5 271 28 124 125 262 232 331 92 60 165 83 318 104 l46 6 7 97
c22 318 196 587 465 721 141 71 216 88 382 90 93 1 136 -4 213 -24z"/>
</g>
</svg>
