<?xml version="1.0" standalone="no"?>
<!DOCTYPE svg PUBLIC "-//W3C//DTD SVG 20010904//EN"
 "http://www.w3.org/TR/2001/REC-SVG-20010904/DTD/svg10.dtd">
<svg version="1.0" xmlns="http://www.w3.org/2000/svg"
 width="512.000000pt" height="512.000000pt" viewBox="0 0 512.000000 512.000000"
 preserveAspectRatio="xMidYMid meet">
<metadata>
Created by potrace 1.16, written by Peter Selinger 2001-2019
</metadata>
<g transform="translate(0.000000,512.000000) scale(0.100000,-0.100000)"
fill="#707070" stroke="none">
<path d="M253 5080 c-89 -19 -174 -81 -218 -161 l-30 -54 -3 -2307 -2 -2307
21 -56 c28 -74 99 -146 174 -174 l56 -21 2309 0 2309 0 56 21 c74 28 146 100
174 174 21 55 21 64 21 1214 0 1301 5 1209 -76 1300 -25 28 -68 61 -97 75 -39
18 -293 72 -1004 213 l-952 188 -3 655 -3 655 -28 57 c-31 63 -86 116 -153
148 -34 15 -330 64 -1227 200 -650 98 -1204 181 -1232 184 -27 3 -69 1 -92 -4z
m1257 -395 c641 -97 1178 -181 1194 -187 15 -6 37 -25 47 -42 18 -30 19 -94
19 -2133 l0 -2103 -315 0 -314 0 -3 518 -3 517 -28 56 c-32 66 -99 132 -165
162 -46 21 -58 22 -448 22 l-401 0 -69 -35 c-49 -25 -79 -49 -106 -85 -68 -89
-68 -90 -68 -652 l0 -503 -275 0 c-300 0 -320 3 -343 55 -17 36 -17 4496 -1
4528 17 34 51 57 84 57 16 0 553 -79 1195 -175z m2425 -1915 c909 -179 910
-179 938 -210 l27 -30 0 -1115 c0 -842 -3 -1120 -12 -1140 -26 -57 12 -55
-983 -55 l-915 0 0 1369 c0 1299 1 1369 18 1365 9 -2 427 -85 927 -184z
m-2068 -1516 c50 -38 52 -52 52 -561 l1 -473 -425 0 -425 0 0 485 c0 399 3
491 14 513 13 25 36 42 76 56 8 3 164 4 347 3 319 -2 333 -3 360 -23z"/>
<path d="M696 4045 c-43 -23 -55 -44 -56 -98 0 -41 5 -53 29 -78 l29 -29 262
0 262 0 29 29 c24 25 29 38 29 78 0 54 -21 86 -67 104 -13 5 -129 9 -256 9
-188 0 -238 -3 -261 -15z"/>
<path d="M1754 4041 c-61 -37 -69 -123 -17 -175 l26 -26 259 0 c159 0 267 4
279 10 26 15 49 62 49 104 0 25 -9 45 -29 68 l-29 33 -254 3 c-234 2 -255 1
-284 -17z"/>
<path d="M696 3405 c-43 -23 -55 -44 -56 -98 0 -41 5 -53 29 -78 l29 -29 262
0 262 0 29 29 c24 25 29 38 29 78 0 54 -21 86 -67 104 -13 5 -129 9 -256 9
-188 0 -238 -3 -261 -15z"/>
<path d="M1754 3401 c-61 -37 -69 -123 -17 -175 l26 -26 259 0 c159 0 267 4
279 10 26 15 49 62 49 104 0 25 -9 45 -29 68 l-29 33 -254 3 c-234 2 -255 1
-284 -17z"/>
<path d="M696 2765 c-43 -23 -55 -44 -56 -98 0 -41 5 -53 29 -78 l29 -29 262
0 262 0 29 29 c24 25 29 38 29 78 0 54 -21 86 -67 104 -13 5 -129 9 -256 9
-188 0 -238 -3 -261 -15z"/>
<path d="M1754 2761 c-61 -37 -69 -123 -17 -175 l26 -26 259 0 c159 0 267 4
279 10 26 15 49 62 49 104 0 25 -9 45 -29 68 l-29 33 -254 3 c-234 2 -255 1
-284 -17z"/>
<path d="M696 2125 c-43 -23 -55 -44 -56 -98 0 -41 5 -53 29 -78 l29 -29 262
0 262 0 29 29 c24 25 29 38 29 78 0 54 -21 86 -67 104 -13 5 -129 9 -256 9
-188 0 -238 -3 -261 -15z"/>
<path d="M1754 2121 c-61 -37 -69 -123 -17 -175 l26 -26 259 0 c159 0 267 4
279 10 26 15 49 62 49 104 0 25 -9 45 -29 68 l-29 33 -254 3 c-234 2 -255 1
-284 -17z"/>
<path d="M3674 2121 c-61 -37 -69 -123 -17 -175 l26 -26 259 0 c159 0 267 4
279 10 26 15 49 62 49 104 0 25 -9 45 -29 68 l-29 33 -254 3 c-234 2 -255 1
-284 -17z"/>
<path d="M3674 1481 c-61 -37 -69 -123 -17 -175 l26 -26 259 0 c159 0 267 4
279 10 26 15 49 62 49 104 0 25 -9 45 -29 68 l-29 33 -254 3 c-234 2 -255 1
-284 -17z"/>
<path d="M3674 841 c-61 -37 -69 -123 -17 -175 l26 -26 259 0 c159 0 267 4
279 10 26 15 49 62 49 104 0 25 -9 45 -29 68 l-29 33 -254 3 c-234 2 -255 1
-284 -17z"/>
</g>
</svg>
