<?xml version="1.0" standalone="no"?>
<!DOCTYPE svg PUBLIC "-//W3C//DTD SVG 20010904//EN"
 "http://www.w3.org/TR/2001/REC-SVG-20010904/DTD/svg10.dtd">
<svg version="1.0" xmlns="http://www.w3.org/2000/svg"
 width="512.000000pt" height="512.000000pt" viewBox="0 0 512.000000 512.000000"
 preserveAspectRatio="xMidYMid meet">
<metadata>
Created by potrace 1.16, written by Peter Selinger 2001-2019
</metadata>
<g transform="translate(0.000000,512.000000) scale(0.100000,-0.100000)"
fill="#707070" stroke="none">
<path d="M627 5104 c-136 -33 -290 -125 -392 -236 -105 -114 -170 -236 -211
-397 l-24 -94 0 -1233 c0 -1036 2 -1244 14 -1301 69 -326 301 -582 605 -665
72 -20 106 -22 659 -27 l583 -6 210 -400 c377 -718 368 -703 404 -725 44 -27
126 -27 170 0 36 22 33 16 394 705 l220 420 583 6 c553 5 587 7 659 27 294 81
515 313 594 627 l25 98 0 1237 0 1237 -24 94 c-68 270 -233 476 -468 583 -155
71 0 66 -2074 65 -1566 -1 -1878 -3 -1927 -15z m3733 -294 c202 -26 361 -173
432 -400 l23 -75 0 -1190 c0 -1134 -1 -1193 -19 -1260 -51 -190 -169 -328
-341 -396 l-60 -24 -645 -5 c-641 -5 -645 -5 -675 -27 -23 -16 -90 -135 -269
-477 -131 -251 -242 -456 -246 -456 -4 0 -115 205 -246 456 -179 341 -247 461
-269 477 -30 22 -34 22 -675 27 l-645 5 -60 24 c-172 68 -290 206 -341 396
-18 67 -19 126 -19 1260 l0 1190 23 75 c34 109 79 186 147 256 74 75 181 131
275 143 93 12 3517 13 3610 1z"/>
<path d="M1888 4378 c-196 -19 -364 -140 -453 -323 -44 -91 -59 -174 -53 -283
7 -116 37 -202 111 -316 8 -12 9 -20 1 -22 -32 -13 -145 -86 -200 -132 -96
-78 -177 -183 -239 -307 -77 -152 -98 -237 -99 -400 -1 -125 0 -132 26 -177
16 -25 45 -60 65 -77 77 -64 49 -62 929 -59 l799 3 41 22 c54 29 107 89 129
146 24 64 16 259 -15 366 -67 236 -227 445 -436 573 l-84 51 20 31 c71 107
100 204 100 333 0 102 -17 178 -59 261 -110 218 -331 336 -583 310z m178 -329
c50 -24 107 -79 130 -128 29 -58 30 -157 4 -220 -44 -100 -156 -168 -264 -159
-222 19 -325 284 -172 446 78 84 200 108 302 61z m132 -862 c107 -37 177 -82
264 -169 58 -59 86 -96 117 -160 43 -88 71 -180 71 -235 l0 -33 -696 0 -696 0
7 57 c33 262 230 481 498 554 60 16 97 18 217 15 124 -3 156 -7 218 -29z"/>
<path d="M3660 3810 c-80 -49 -153 -99 -162 -110 -28 -34 -33 -85 -13 -136 29
-75 96 -93 166 -43 l29 20 0 -521 0 -521 24 -24 c59 -59 213 -59 272 0 l24 24
0 663 c0 728 3 690 -60 723 -16 8 -53 15 -82 14 -49 0 -65 -8 -198 -89z"/>
</g>
</svg>
