<?xml version="1.0" standalone="no"?>
<!DOCTYPE svg PUBLIC "-//W3C//DTD SVG 20010904//EN"
 "http://www.w3.org/TR/2001/REC-SVG-20010904/DTD/svg10.dtd">
<svg version="1.0" xmlns="http://www.w3.org/2000/svg"
 width="512.000000pt" height="512.000000pt" viewBox="0 0 512.000000 512.000000"
 preserveAspectRatio="xMidYMid meet">
<metadata>
Created by potrace 1.16, written by Peter Selinger 2001-2019
</metadata>
<g transform="translate(0.000000,512.000000) scale(0.100000,-0.100000)"
fill="#4E4E4E" stroke="none">
<path d="M448 4642 c-83 -199 -111 -345 -112 -587 0 -187 12 -287 55 -444 l20
-75 -31 -40 c-163 -215 -257 -405 -320 -652 -43 -165 -60 -326 -60 -559 0
-744 196 -1205 635 -1491 141 -91 317 -169 562 -248 218 -70 412 -103 808
-138 219 -19 1049 -16 1242 5 724 79 1128 232 1444 546 228 226 343 481 405
891 22 145 30 580 14 719 -41 355 -158 655 -357 913 l-44 58 20 72 c43 152 55
255 55 443 -1 241 -37 425 -119 602 l-34 73 -58 0 c-81 0 -252 -26 -342 -51
-195 -55 -422 -183 -736 -417 l-30 -22 -95 21 c-393 85 -952 97 -1400 28 -69
-10 -264 -47 -291 -55 -9 -2 -52 23 -100 59 -274 206 -500 332 -692 387 -87
24 -265 50 -347 50 l-55 0 -37 -88z m1382 -2022 c635 -84 855 -83 1515 6 191
26 368 29 465 10 248 -50 440 -221 547 -488 84 -208 87 -525 6 -751 -110 -311
-334 -501 -713 -608 -295 -83 -423 -94 -1090 -94 -667 0 -795 11 -1090 94
-352 99 -570 271 -687 541 -91 211 -112 486 -54 715 26 100 106 260 172 343
96 120 244 213 394 246 91 21 320 15 535 -14z"/>
<path d="M1498 2357 c-183 -52 -318 -301 -318 -584 1 -258 115 -494 275 -569
70 -33 170 -33 241 0 160 75 273 309 274 566 0 379 -223 656 -472 587z"/>
<path d="M3470 2356 c-187 -50 -320 -294 -320 -586 1 -257 114 -491 274 -566
71 -33 171 -33 241 0 159 75 274 312 275 566 0 295 -143 549 -331 589 -61 13
-82 13 -139 -3z"/>
</g>
</svg>
