<?xml version="1.0" standalone="no"?>
<!DOCTYPE svg PUBLIC "-//W3C//DTD SVG 20010904//EN"
 "http://www.w3.org/TR/2001/REC-SVG-20010904/DTD/svg10.dtd">
<svg version="1.0" xmlns="http://www.w3.org/2000/svg"
 width="3840.000000pt" height="2160.000000pt" viewBox="0 0 3840.000000 2160.000000"
 preserveAspectRatio="xMidYMid meet">
<metadata>
Created by potrace 1.16, written by Peter Selinger 2001-2019
</metadata>
<g transform="translate(0.000000,2160.000000) scale(0.100000,-0.100000)"
fill="#000000" stroke="none">
<path d="M18667 21245 c-1246 -100 -2391 -494 -3412 -1175 -1976 -1319 -3164
-3536 -3165 -5905 -1 -1393 401 -2749 1154 -3895 687 -1044 1597 -1865 2701
-2436 334 -173 872 -396 1035 -430 62 -12 163 -6 232 16 106 33 195 127 223
235 6 25 8 1415 2 1422 -1 1 -52 -7 -112 -17 -236 -40 -379 -53 -645 -56 -294
-3 -447 11 -649 62 -476 119 -797 382 -962 791 -163 403 -496 890 -702 1025
-28 19 -86 56 -127 83 -104 67 -166 121 -211 184 -65 91 -52 156 41 195 97 40
323 43 471 6 104 -26 300 -121 394 -192 95 -72 234 -206 312 -303 36 -44 108
-145 160 -225 118 -177 184 -259 299 -370 222 -213 470 -332 770 -370 268 -34
589 13 891 131 81 32 104 45 107 62 50 267 92 406 165 551 64 125 130 222 213
311 44 47 65 76 56 79 -7 2 -103 16 -213 31 -821 110 -1457 351 -1935 731
-119 95 -321 300 -413 421 -387 508 -589 1125 -646 1973 -12 188 -5 576 13
715 75 568 278 1034 637 1461 l68 80 -34 106 c-79 244 -110 485 -102 787 8
267 37 452 113 711 34 117 88 267 99 279 4 3 77 6 163 5 131 0 179 -5 287 -28
383 -80 877 -306 1372 -628 l122 -79 183 45 c405 100 819 161 1250 185 161 9
654 7 773 -4 511 -44 767 -84 1147 -176 l207 -50 88 59 c246 166 639 381 873
480 220 92 410 151 590 181 119 20 286 27 361 15 l36 -6 51 -152 c196 -578
212 -1110 50 -1634 l-32 -103 36 -37 c211 -223 424 -586 537 -915 108 -313
151 -594 151 -982 0 -984 -228 -1760 -683 -2325 -105 -130 -311 -331 -440
-428 -469 -353 -1088 -580 -1877 -687 -107 -14 -205 -28 -217 -31 -20 -4 -17
-9 31 -57 86 -85 174 -213 236 -342 65 -133 89 -201 125 -344 62 -249 60 -196
60 -1461 1 -1152 1 -1155 22 -1207 28 -69 72 -124 131 -161 63 -41 117 -53
221 -53 96 1 183 26 466 138 1882 744 3377 2282 4069 4190 298 822 442 1698
422 2568 -3 154 -9 307 -12 340 -33 396 -65 632 -125 928 -499 2489 -2306
4532 -4720 5338 -541 180 -998 273 -1704 344 -131 14 -909 13 -1078 0z"/>
<path d="M9730 6624 c-1102 -132 -1774 -741 -2060 -1871 -188 -739 -198 -1817
-24 -2525 68 -278 131 -455 241 -670 282 -556 736 -930 1349 -1108 184 -54
418 -99 599 -115 33 -3 98 -10 145 -14 47 -5 222 -8 390 -6 246 2 336 6 464
24 440 59 856 195 1178 384 49 29 91 61 97 74 15 34 15 3052 0 3086 -6 13 -23
31 -39 40 -26 16 -111 17 -1032 17 -1114 0 -1035 4 -1064 -66 -21 -50 -21
-979 0 -1029 26 -62 30 -62 456 -62 l385 0 3 -588 c1 -324 -1 -592 -6 -597 -7
-7 -145 -33 -232 -42 -124 -15 -483 -18 -591 -6 -431 47 -725 251 -918 637
-138 277 -214 662 -228 1158 -22 800 145 1401 477 1718 295 283 698 383 1380
344 289 -17 499 -54 742 -133 59 -19 118 -34 131 -34 31 0 62 24 75 57 13 33
232 963 232 985 0 32 -46 70 -133 112 -246 117 -606 198 -1052 235 -166 14
-834 11 -965 -5z"/>
<path d="M17864 6386 l-34 -34 0 -2922 c0 -2132 3 -2927 11 -2943 6 -12 21
-30 33 -39 19 -16 67 -18 606 -18 539 0 587 2 606 18 12 9 27 27 33 39 8 16
11 370 11 1267 l0 1246 855 0 855 0 0 -1256 0 -1256 29 -29 29 -29 581 0 c412
0 587 3 605 11 14 7 32 27 41 45 14 29 15 330 13 2954 l-3 2922 -33 29 -32 29
-576 0 c-624 0 -617 1 -642 -55 -9 -20 -12 -289 -12 -1100 0 -591 -3 -1075 -7
-1076 -5 -1 -389 -2 -856 -2 l-847 -2 0 1084 0 1083 -34 34 -34 34 -582 0
-582 0 -34 -34z"/>
<path d="M27018 6391 l-33 -29 -3 -2922 c-2 -2624 -1 -2925 13 -2954 9 -18 27
-38 41 -45 17 -8 149 -11 433 -11 394 0 409 1 434 20 30 24 42 58 57 155 5 39
13 85 16 104 l5 33 27 -25 c51 -48 183 -129 305 -187 304 -146 608 -213 972
-213 253 0 429 24 609 84 570 190 866 700 958 1649 14 151 18 806 5 960 -18
221 -61 440 -123 628 -183 559 -535 880 -1069 978 -107 19 -461 28 -575 13
-287 -36 -500 -104 -802 -257 -5 -2 -8 444 -8 992 l0 995 -24 28 -24 28 -591
3 -590 2 -33 -29z m2088 -2832 c134 -33 263 -127 333 -244 101 -167 151 -434
151 -805 0 -419 -39 -695 -121 -867 -92 -192 -235 -265 -524 -265 -212 0 -399
41 -587 129 l-98 46 0 918 0 917 33 19 c56 33 199 91 292 118 173 51 394 65
521 34z"/>
<path d="M13330 6283 c-299 -38 -519 -216 -617 -498 -24 -72 -27 -94 -28 -220
0 -109 4 -153 18 -200 156 -504 731 -691 1139 -370 116 91 212 245 249 403 29
120 23 273 -15 387 -84 248 -282 429 -534 486 -48 11 -169 18 -212 12z"/>
<path d="M15120 5660 c-20 -20 -20 -33 -20 -598 l0 -578 -302 -74 c-167 -40
-312 -79 -324 -87 -11 -7 -26 -25 -32 -39 -15 -32 -17 -750 -2 -788 5 -14 23
-34 39 -44 27 -17 57 -18 325 -18 l295 1 4 -975 c4 -848 6 -987 21 -1069 56
-322 159 -540 340 -716 215 -209 487 -312 906 -346 163 -13 210 -14 326 -5
169 13 457 67 555 105 60 22 59 16 59 483 l0 427 -24 28 c-27 32 -13 31 -291
18 -132 -6 -176 -5 -250 9 -169 32 -270 101 -328 224 l-32 67 0 874 0 875 427
0 428 1 27 28 28 27 3 472 c2 343 -1 480 -9 501 -24 58 -15 57 -481 57 l-428
0 -2 566 c-3 547 -4 566 -22 580 -17 12 -117 14 -618 14 -585 0 -598 0 -618
-20z"/>
<path d="M12790 4505 c-59 -31 -55 105 -55 -2019 0 -1944 0 -1951 20 -1986 42
-72 26 -70 638 -70 601 0 590 -1 622 60 13 26 15 258 15 2000 l0 1972 -29 29
-29 29 -579 0 c-472 -1 -583 -3 -603 -15z"/>
<path d="M22699 4481 l-29 -29 0 -1434 c0 -1528 1 -1563 49 -1770 132 -563
486 -849 1144 -922 141 -16 424 -18 547 -5 202 22 430 79 645 164 122 47 312
140 391 190 l51 33 12 -87 c18 -133 27 -157 64 -179 30 -19 50 -19 406 -17
264 3 381 7 397 15 52 28 49 -83 49 2037 l0 1975 -33 29 -32 29 -581 0 -581 0
-29 -29 -29 -29 0 -1440 0 -1440 -107 -55 c-238 -120 -501 -168 -717 -131
-102 18 -154 42 -215 99 -69 65 -112 177 -125 325 -2 30 -5 637 -5 1348 l-1
1294 -29 29 -29 29 -592 0 -592 0 -29 -29z"/>
</g>
</svg>
