<?xml version="1.0" standalone="no"?>
<!DOCTYPE svg PUBLIC "-//W3C//DTD SVG 20010904//EN"
 "http://www.w3.org/TR/2001/REC-SVG-20010904/DTD/svg10.dtd">
<svg version="1.0" xmlns="http://www.w3.org/2000/svg"
 width="512.000000pt" height="512.000000pt" viewBox="0 0 512.000000 512.000000"
 preserveAspectRatio="xMidYMid meet">
<metadata>
Created by potrace 1.16, written by Peter Selinger 2001-2019
</metadata>
<g transform="translate(0.000000,512.000000) scale(0.100000,-0.100000)"
fill="#000000" stroke="none">
<path d="M2270 5100 c-384 -65 -713 -234 -984 -506 -280 -279 -449 -617 -512
-1019 -23 -152 -15 -465 16 -610 29 -139 92 -321 150 -440 27 -55 381 -635
787 -1290 563 -906 747 -1195 773 -1212 46 -32 124 -32 171 0 27 18 177 261
717 1162 774 1292 779 1302 834 1432 94 226 128 386 135 648 6 212 -5 328 -48
497 -160 636 -671 1148 -1307 1307 -216 54 -521 67 -732 31z m532 -306 c541
-89 996 -476 1171 -994 45 -133 66 -234 76 -374 20 -272 -38 -554 -164 -791
-29 -55 -334 -569 -677 -1143 l-625 -1042 -653 1052 c-360 579 -673 1090 -697
1135 -154 288 -205 650 -138 978 120 585 583 1049 1170 1170 170 35 359 38
537 9z"/>
<path d="M2365 4204 c-131 -29 -286 -106 -392 -196 -145 -122 -260 -315 -297
-500 -21 -99 -20 -277 0 -376 72 -350 351 -627 703 -698 114 -23 324 -15 431
15 321 93 569 361 635 690 21 104 16 323 -10 416 -40 143 -131 299 -236 404
-104 105 -261 196 -404 236 -86 24 -337 30 -430 9z m378 -319 c92 -31 167 -78
235 -147 319 -318 184 -850 -251 -990 -88 -29 -248 -28 -337 1 -187 60 -341
214 -401 401 -32 98 -30 250 4 348 34 97 80 171 149 240 162 162 390 218 601
147z"/>
</g>
</svg>
