<?xml version="1.0" standalone="no"?>
<!DOCTYPE svg PUBLIC "-//W3C//DTD SVG 20010904//EN"
 "http://www.w3.org/TR/2001/REC-SVG-20010904/DTD/svg10.dtd">
<svg version="1.0" xmlns="http://www.w3.org/2000/svg"
 width="512.000000pt" height="512.000000pt" viewBox="0 0 512.000000 512.000000"
 preserveAspectRatio="xMidYMid meet">
<metadata>
Created by potrace 1.16, written by Peter Selinger 2001-2019
</metadata>
<g transform="translate(0.000000,512.000000) scale(0.100000,-0.100000)"
fill="#000000" stroke="none">
<path d="M2463 5095 c-27 -17 -49 -40 -63 -69 -20 -42 -21 -55 -18 -344 l3
-300 31 -39 c44 -55 87 -75 156 -70 70 4 122 40 150 103 17 41 19 66 16 337
l-3 294 -25 36 c-54 78 -164 102 -247 52z"/>
<path d="M855 4425 c-5 -2 -22 -6 -37 -9 -35 -8 -85 -50 -105 -89 -20 -40 -20
-124 0 -162 8 -17 107 -121 219 -232 221 -219 225 -222 325 -210 76 8 132 64
140 140 12 100 9 104 -210 325 -111 112 -213 209 -227 216 -27 14 -89 26 -105
21z"/>
<path d="M4205 4421 c-51 -13 -64 -24 -272 -233 -219 -221 -222 -225 -210
-325 8 -76 64 -132 140 -140 100 -12 104 -9 325 210 112 111 211 215 219 232
19 36 21 122 3 155 -40 78 -125 120 -205 101z"/>
<path d="M2330 3905 c-432 -76 -803 -355 -996 -750 -56 -116 -105 -272 -123
-392 -14 -92 -14 -314 0 -406 65 -438 352 -827 754 -1023 116 -56 272 -105
392 -123 92 -14 314 -14 406 0 438 65 827 352 1023 754 56 116 105 272 123
392 14 92 14 314 0 406 -65 438 -352 826 -754 1023 -116 56 -272 105 -392 123
-96 15 -340 12 -433 -4z m345 -349 c134 -11 310 -75 442 -163 77 -51 184 -153
245 -233 63 -82 141 -241 168 -343 42 -153 42 -362 0 -514 -77 -282 -271 -515
-535 -644 -121 -58 -225 -88 -345 -97 -193 -16 -354 14 -525 97 -379 185 -597
568 -563 991 3 49 16 125 28 167 27 102 105 261 168 343 172 226 439 376 711
399 47 4 97 6 111 5 14 -2 57 -5 95 -8z"/>
<path d="M105 2725 c-70 -33 -105 -87 -105 -164 0 -65 26 -116 77 -151 l36
-25 294 -3 c333 -3 353 0 409 74 25 33 29 46 29 104 0 58 -4 71 -29 104 -54
72 -74 76 -396 75 -224 0 -291 -3 -315 -14z"/>
<path d="M4392 2732 c-37 -11 -93 -62 -108 -98 -33 -78 -9 -163 59 -218 l39
-31 312 0 312 0 37 25 c104 71 104 229 0 300 l-36 25 -296 2 c-163 1 -306 -2
-319 -5z"/>
<path d="M1150 1389 c-32 -13 -416 -394 -437 -434 -20 -38 -20 -122 0 -160 17
-34 50 -67 87 -85 33 -18 119 -16 155 3 17 8 121 107 232 219 219 221 222 225
210 325 -5 48 -27 85 -70 117 -31 23 -136 32 -177 15z"/>
<path d="M3815 1386 c-37 -16 -70 -52 -84 -89 -14 -36 -14 -108 -1 -144 13
-33 392 -417 435 -440 38 -20 122 -20 160 0 34 17 67 50 85 87 18 33 16 119
-3 155 -23 43 -407 422 -440 435 -39 14 -116 12 -152 -4z"/>
<path d="M2480 832 c-19 -10 -48 -36 -65 -56 l-30 -38 -3 -300 c-3 -289 -2
-302 19 -344 57 -119 233 -128 309 -17 l25 36 3 294 c3 332 -1 353 -73 409
-49 37 -133 45 -185 16z"/>
</g>
</svg>
