<?xml version="1.0" standalone="no"?>
<!DOCTYPE svg PUBLIC "-//W3C//DTD SVG 20010904//EN"
 "http://www.w3.org/TR/2001/REC-SVG-20010904/DTD/svg10.dtd">
<svg version="1.0" xmlns="http://www.w3.org/2000/svg"
 width="512.000000pt" height="512.000000pt" viewBox="0 0 512.000000 512.000000"
 preserveAspectRatio="xMidYMid meet">
<metadata>
Created by potrace 1.16, written by Peter Selinger 2001-2019
</metadata>
<g transform="translate(0.000000,512.000000) scale(0.100000,-0.100000)"
fill="#000000" stroke="none">
<path d="M4430 4627 l-335 -164 -76 32 c-234 100 -523 113 -769 33 -289 -93
-540 -320 -681 -617 -81 -170 -119 -327 -126 -530 l-6 -143 -66 6 c-36 4 -118
18 -181 32 -494 109 -926 379 -1249 779 -56 69 -96 129 -248 364 -15 25 -40
53 -54 64 -68 50 -173 24 -229 -57 -51 -74 -106 -193 -136 -291 -25 -83 -27
-103 -28 -275 -1 -203 13 -286 74 -429 16 -36 27 -68 25 -70 -2 -2 -37 7 -77
19 -126 39 -198 26 -246 -44 -27 -39 -29 -97 -6 -199 80 -360 309 -665 633
-844 l71 -40 -67 -17 c-136 -35 -151 -44 -189 -101 -23 -36 -20 -118 6 -160
30 -48 177 -175 290 -250 169 -112 396 -214 623 -280 l97 -28 -52 -39 c-82
-60 -262 -144 -378 -177 -169 -48 -288 -62 -575 -68 -202 -4 -267 -9 -293 -20
-74 -35 -102 -134 -60 -210 74 -135 440 -315 868 -427 628 -164 1303 -192
1866 -76 385 80 726 228 1004 438 103 78 294 265 400 392 521 626 727 1345
616 2155 l-12 90 65 105 c195 316 191 309 191 365 0 62 -28 111 -80 138 -30
16 -50 18 -145 12 -60 -3 -127 -8 -148 -12 l-37 -6 116 239 c138 284 138 284
132 339 -6 53 -37 97 -82 119 -70 33 -89 27 -446 -147z m-56 -509 c-70 -139
-87 -182 -87 -219 -1 -63 27 -108 85 -137 46 -23 51 -24 165 -13 64 6 119 9
121 7 2 -3 -12 -29 -32 -60 -86 -135 -89 -154 -61 -366 92 -681 -78 -1303
-503 -1839 -95 -120 -315 -341 -406 -408 -364 -268 -803 -405 -1384 -433 -430
-20 -884 36 -1317 164 -84 24 -83 28 5 41 334 49 686 240 938 509 92 99 103
175 36 255 -29 35 -56 45 -184 66 -275 46 -576 153 -757 267 l-65 41 109 56
c144 75 192 109 214 151 37 68 16 162 -45 199 -17 11 -80 36 -141 56 -265 89
-471 232 -595 415 -35 51 -80 133 -80 144 0 3 38 2 84 -1 100 -7 231 11 275
38 44 27 71 75 71 129 0 53 -14 83 -73 153 -85 102 -143 216 -174 345 -17 74
-21 271 -6 310 9 23 12 20 59 -45 133 -182 333 -385 514 -523 404 -306 886
-481 1391 -507 120 -6 128 -5 168 17 28 16 48 38 62 68 l22 44 -18 124 c-48
334 48 636 275 864 78 79 112 104 185 142 157 81 308 110 462 88 99 -13 168
-36 276 -91 118 -60 135 -58 332 40 88 44 161 80 163 80 1 1 -37 -77 -84 -171z"/>
</g>
</svg>
