<?xml version="1.0" standalone="no"?>
<!DOCTYPE svg PUBLIC "-//W3C//DTD SVG 20010904//EN"
 "http://www.w3.org/TR/2001/REC-SVG-20010904/DTD/svg10.dtd">
<svg version="1.0" xmlns="http://www.w3.org/2000/svg"
 width="512.000000pt" height="512.000000pt" viewBox="0 0 512.000000 512.000000"
 preserveAspectRatio="xMidYMid meet">
<metadata>
Created by potrace 1.16, written by Peter Selinger 2001-2019
</metadata>
<g transform="translate(0.000000,512.000000) scale(0.100000,-0.100000)"
fill="#000000" stroke="none">
<path d="M2310 5114 c-642 -77 -1156 -325 -1585 -765 -384 -394 -608 -843
-702 -1404 -26 -158 -26 -612 0 -770 93 -560 318 -1010 702 -1404 388 -398
861 -645 1425 -744 172 -30 625 -32 795 -4 578 96 1053 340 1446 743 382 392
606 834 702 1384 30 172 32 625 4 795 -92 557 -319 1011 -702 1404 -340 349
-759 590 -1220 702 -203 49 -311 61 -575 64 -140 2 -271 1 -290 -1z m80 -887
l0 -533 -82 8 c-178 19 -384 71 -574 145 l-91 36 43 99 c121 276 283 505 454
641 64 51 216 137 242 137 4 0 8 -240 8 -533z m451 487 c220 -110 439 -381
592 -730 l44 -101 -91 -36 c-190 -74 -396 -126 -573 -145 l-83 -8 0 534 0 533
23 -7 c12 -3 52 -22 88 -40z m-1215 -146 c-78 -110 -196 -326 -267 -486 l-14
-33 -85 60 c-47 34 -103 76 -125 95 -36 31 -38 36 -24 48 75 61 187 144 249
184 63 41 267 153 279 154 2 0 -4 -10 -13 -22z m2083 -100 c68 -42 230 -158
300 -216 14 -12 12 -17 -24 -48 -22 -19 -78 -61 -125 -95 l-85 -61 -29 69
c-59 135 -173 339 -253 452 -15 21 -10 20 58 -14 40 -20 112 -60 158 -87z
m-2751 -556 c54 -42 136 -103 185 -135 48 -32 87 -59 87 -61 0 -2 -13 -57 -30
-122 -57 -231 -95 -482 -116 -771 l-6 -93 -369 0 -369 0 0 21 c0 46 32 239 56
338 51 209 144 433 254 617 54 89 195 284 206 284 3 0 49 -35 102 -78z m3386
-21 c225 -302 366 -644 420 -1012 9 -59 16 -116 16 -128 l0 -21 -369 0 -369 0
-6 93 c-20 281 -60 545 -116 771 -17 65 -30 120 -30 122 0 1 44 32 98 68 53
36 135 97 182 135 47 39 88 70 93 71 4 0 40 -45 81 -99z m-2614 -402 c176 -61
408 -111 580 -125 l80 -7 0 -313 0 -314 -487 0 -486 0 7 108 c12 209 61 524
102 669 l15 52 52 -21 c29 -11 90 -33 137 -49z m1884 -69 c46 -208 86 -507 86
-640 l0 -50 -485 0 -485 0 0 313 0 313 118 12 c213 23 477 88 667 166 43 17
62 21 67 13 3 -7 17 -64 32 -127z m-2530 -1122 c21 -290 59 -541 116 -772 17
-65 30 -120 30 -122 0 -2 -39 -29 -87 -61 -49 -32 -131 -93 -185 -135 -53 -43
-99 -78 -102 -78 -11 0 -152 195 -206 284 -110 184 -203 408 -254 617 -24 99
-56 292 -56 338 l0 21 369 0 369 0 6 -92z m1306 -223 l0 -315 -37 0 c-68 0
-299 -38 -420 -69 -117 -30 -241 -70 -340 -109 l-52 -21 -15 52 c-41 145 -90
460 -102 669 l-7 108 486 0 487 0 0 -315z m1306 207 c-12 -208 -63 -532 -106
-684 l-11 -37 -52 21 c-199 80 -466 147 -679 170 l-118 12 0 313 0 313 487 0
486 0 -7 -108z m1084 87 c0 -50 -33 -243 -60 -350 -53 -211 -141 -424 -251
-605 -53 -89 -194 -284 -205 -284 -3 0 -49 35 -102 78 -54 42 -136 103 -185
135 -48 32 -87 59 -87 61 0 2 13 57 30 122 56 226 96 490 116 772 l6 92 369 0
369 0 0 -21z m-2395 -2007 c-10 -10 -164 72 -233 125 -173 132 -344 371 -466
651 l-43 99 91 36 c189 74 405 128 576 145 l75 7 3 -529 c1 -291 0 -531 -3
-534z m610 1027 c119 -23 265 -67 391 -116 l91 -36 -44 -101 c-117 -269 -284
-505 -451 -638 -69 -54 -174 -115 -229 -132 l-23 -7 0 533 0 534 83 -8 c45 -5
127 -18 182 -29z m-1560 -509 c53 -108 135 -248 192 -329 15 -21 10 -20 -58
14 -142 71 -324 192 -458 303 -14 12 -12 17 24 48 22 19 78 61 125 95 l85 60
14 -33 c8 -18 42 -89 76 -158z m2491 82 c52 -40 94 -76 94 -80 -1 -11 -130
-110 -241 -184 -109 -72 -306 -178 -293 -156 5 7 30 45 55 83 66 100 151 256
195 357 l37 87 29 -17 c16 -9 72 -50 124 -90z"/>
</g>
</svg>
